<?xml version="1.0" encoding="utf-8"?>
<!-- Generator: Adobe Illustrator 16.0.0, SVG Export Plug-In . SVG Version: 6.00 Build 0)  -->
<!DOCTYPE svg PUBLIC "-//W3C//DTD SVG 1.1//EN" "http://www.w3.org/Graphics/SVG/1.1/DTD/svg11.dtd">
<svg version="1.1" xmlns="http://www.w3.org/2000/svg" xmlns:xlink="http://www.w3.org/1999/xlink" x="0px" y="0px" width="500px"
	 height="500px" viewBox="0 0 500 500" enable-background="new 0 0 500 500" xml:space="preserve">
<g id="Layer_2">
	<linearGradient id="SVGID_1_" gradientUnits="userSpaceOnUse" x1="3.9121" y1="250" x2="496.0879" y2="250">
		<stop  offset="0" style="stop-color:#F89A2F"/>
		<stop  offset="0.0716" style="stop-color:#F5832B"/>
		<stop  offset="0.1605" style="stop-color:#F26928"/>
		<stop  offset="0.2513" style="stop-color:#F05226"/>
		<stop  offset="0.3436" style="stop-color:#EF3E26"/>
		<stop  offset="0.4383" style="stop-color:#EE3025"/>
		<stop  offset="0.5392" style="stop-color:#EE2A25"/>
		<stop  offset="0.9994" style="stop-color:#D31F26"/>
	</linearGradient>
	<path fill="url(#SVGID_1_)" d="M471.447,3.913H28.553c-13.609,0-24.641,11.032-24.641,24.641v442.893
		c0,13.609,11.032,24.641,24.641,24.641h442.894c13.607,0,24.641-11.032,24.641-24.641V28.554
		C496.088,14.945,485.055,3.913,471.447,3.913z M485.064,461.526c0,13-10.54,23.538-23.538,23.538H38.473
		c-12.999,0-23.537-10.539-23.537-23.538V38.474c0-13,10.538-23.538,23.537-23.538h423.054c12.998,0,23.538,10.538,23.538,23.538
		V461.526z"/>
	<g>
		<path fill="#ED1C24" d="M91.854,454.154c0.66,1.271,1.537,2.301,2.63,3.088c1.092,0.789,2.375,1.373,3.851,1.754
			c1.474,0.381,2.999,0.572,4.575,0.572c1.067,0,2.211-0.088,3.431-0.267c1.22-0.178,2.363-0.521,3.431-1.03
			c1.068-0.507,1.957-1.207,2.669-2.097c0.711-0.889,1.067-2.021,1.067-3.393c0-1.474-0.471-2.669-1.411-3.584
			c-0.941-0.915-2.173-1.677-3.698-2.287s-3.254-1.144-5.185-1.601c-1.932-0.458-3.888-0.965-5.871-1.525
			c-2.034-0.508-4.016-1.131-5.947-1.868c-1.933-0.736-3.66-1.689-5.185-2.859c-1.525-1.168-2.758-2.63-3.698-4.384
			c-0.941-1.753-1.411-3.875-1.411-6.366c0-2.795,0.597-5.223,1.792-7.282c1.194-2.059,2.757-3.774,4.689-5.146
			c1.931-1.373,4.117-2.389,6.557-3.05c2.44-0.66,4.88-0.991,7.32-0.991c2.846,0,5.578,0.318,8.196,0.953
			c2.618,0.636,4.943,1.666,6.977,3.088c2.033,1.424,3.647,3.24,4.842,5.452c1.194,2.211,1.792,4.893,1.792,8.044h-11.589
			c-0.103-1.626-0.445-2.974-1.029-4.041c-0.585-1.067-1.36-1.906-2.325-2.516c-0.966-0.61-2.072-1.042-3.317-1.296
			c-1.246-0.254-2.605-0.381-4.079-0.381c-0.966,0-1.933,0.103-2.897,0.305c-0.966,0.204-1.843,0.56-2.63,1.067
			c-0.789,0.509-1.437,1.144-1.944,1.906c-0.509,0.762-0.763,1.729-0.763,2.897c0,1.067,0.203,1.932,0.61,2.592
			c0.406,0.661,1.207,1.271,2.401,1.83c1.194,0.56,2.846,1.119,4.956,1.677c2.109,0.56,4.867,1.271,8.273,2.135
			c1.016,0.204,2.427,0.572,4.231,1.105c1.804,0.534,3.596,1.386,5.375,2.554c1.779,1.17,3.317,2.733,4.613,4.689
			c1.296,1.958,1.944,4.46,1.944,7.51c0,2.491-0.484,4.803-1.449,6.938c-0.966,2.135-2.402,3.978-4.308,5.528
			c-1.906,1.551-4.27,2.758-7.091,3.622c-2.821,0.864-6.087,1.296-9.797,1.296c-3,0-5.909-0.369-8.73-1.105
			c-2.821-0.736-5.312-1.893-7.472-3.469c-2.161-1.575-3.877-3.583-5.147-6.023c-1.271-2.44-1.881-5.337-1.83-8.692h11.589
			C90.863,451.333,91.193,452.884,91.854,454.154z"/>
		<path fill="#ED1C24" d="M127.918,423.198v-10.065h44.604v10.065h-16.317v44.375h-11.97v-44.375H127.918z"/>
		<path fill="#ED1C24" d="M198.903,413.133l20.357,54.44h-12.428l-4.117-12.123h-20.357l-4.27,12.123h-12.047l20.586-54.44H198.903z
			 M199.589,446.529l-6.862-19.977h-0.152l-7.091,19.977H199.589z"/>
		<path fill="#ED1C24" d="M253.342,413.133c2.44,0,4.638,0.395,6.595,1.182c1.956,0.789,3.634,1.868,5.032,3.24
			c1.397,1.373,2.465,2.962,3.203,4.766c0.736,1.805,1.105,3.749,1.105,5.833c0,3.203-0.674,5.974-2.021,8.311
			c-1.348,2.338-3.545,4.117-6.595,5.337v0.152c1.474,0.407,2.693,1.029,3.66,1.868c0.965,0.838,1.753,1.83,2.364,2.974
			c0.61,1.144,1.054,2.401,1.334,3.774c0.279,1.373,0.47,2.745,0.572,4.117c0.05,0.865,0.102,1.881,0.153,3.05
			c0.05,1.17,0.139,2.364,0.267,3.584c0.126,1.22,0.33,2.376,0.61,3.469c0.279,1.094,0.698,2.021,1.258,2.783h-11.971
			c-0.661-1.728-1.067-3.786-1.22-6.176c-0.153-2.389-0.381-4.676-0.687-6.862c-0.407-2.846-1.271-4.93-2.592-6.252
			c-1.322-1.321-3.482-1.982-6.481-1.982h-11.971v21.272h-11.971v-54.44H253.342z M249.072,437.761c2.745,0,4.804-0.61,6.176-1.83
			c1.373-1.22,2.059-3.202,2.059-5.947c0-2.643-0.686-4.562-2.059-5.756c-1.373-1.194-3.431-1.792-6.176-1.792h-13.114v15.326
			H249.072z"/>
		<path fill="#ED1C24" d="M273.395,423.198v-10.065h44.604v10.065h-16.317v44.375h-11.97v-44.375H273.395z"/>
		<path fill="#ED1C24" d="M364.966,413.133v10.065h-28.745v11.666h26.381v9.302h-26.381v13.343h29.355v10.064H324.25v-54.44H364.966
			z"/>
		<path fill="#ED1C24" d="M403.012,413.133c2.44,0,4.638,0.395,6.595,1.182c1.956,0.789,3.634,1.868,5.032,3.24
			c1.397,1.373,2.465,2.962,3.203,4.766c0.736,1.805,1.105,3.749,1.105,5.833c0,3.203-0.674,5.974-2.021,8.311
			c-1.348,2.338-3.545,4.117-6.595,5.337v0.152c1.474,0.407,2.693,1.029,3.66,1.868c0.965,0.838,1.753,1.83,2.364,2.974
			c0.61,1.144,1.054,2.401,1.334,3.774c0.279,1.373,0.47,2.745,0.572,4.117c0.05,0.865,0.102,1.881,0.153,3.05
			c0.05,1.17,0.139,2.364,0.267,3.584c0.126,1.22,0.33,2.376,0.61,3.469c0.279,1.094,0.698,2.021,1.258,2.783h-11.971
			c-0.661-1.728-1.067-3.786-1.22-6.176c-0.153-2.389-0.381-4.676-0.687-6.862c-0.407-2.846-1.271-4.93-2.592-6.252
			c-1.322-1.321-3.482-1.982-6.481-1.982h-11.971v21.272h-11.971v-54.44H403.012z M398.742,437.761c2.745,0,4.804-0.61,6.176-1.83
			c1.373-1.22,2.059-3.202,2.059-5.947c0-2.643-0.686-4.562-2.059-5.756c-1.373-1.194-3.431-1.792-6.176-1.792h-13.114v15.326
			H398.742z"/>
	</g>
</g>
<g id="Layer_1">
	<path fill="#E44F26" d="M136.753,340.087l-25.21-282.962H388.7l-25.21,282.81L249.892,371.41"/>
	<path fill="#F1662A" d="M250.121,347.344V80.349h113.293l-21.62,241.405"/>
	<path fill="#EBEBEB" d="M163.032,114.955h87.089v34.682h-49.045l3.209,35.523h45.836v34.607h-77.616 M174.033,237.185h34.835
		l2.444,27.731l38.809,10.389v36.211l-71.199-19.862"/>
	<path fill="#FFFFFF" d="M336.906,114.955h-86.938v34.682h83.728 M330.563,185.161h-80.596v34.683h42.783l-4.05,45.073
		l-38.733,10.389v36.058l71.048-19.709"/>
	<g>
	</g>
	<g>
	</g>
	<g>
	</g>
	<g>
	</g>
	<g>
	</g>
	<g>
	</g>
</g>
</svg>
