<?xml version="1.0" encoding="utf-8"?>
<!-- Generator: Adobe Illustrator 16.0.0, SVG Export Plug-In . SVG Version: 6.00 Build 0)  -->
<!DOCTYPE svg PUBLIC "-//W3C//DTD SVG 1.1//EN" "http://www.w3.org/Graphics/SVG/1.1/DTD/svg11.dtd">
<svg version="1.1" id="Layer_1" xmlns="http://www.w3.org/2000/svg" xmlns:xlink="http://www.w3.org/1999/xlink" x="0px" y="0px"
	 width="1500px" height="320.982px" viewBox="0 0 1500 320.982" enable-background="new 0 0 1500 320.982" xml:space="preserve">
<g id="gulp_1_">
	<g id="gulp">
		<g id="Gulp-Logo" transform="translate(0.000000, 1.000000)">
			<path id="Cup" fill="#DB4749" d="M135.241,244.212c-17.451,0-30.934-2.621-37.419-4.185c-4.434-1.067-7.995-2.173-10.7-3.311
				l8.648,14.777l3.383,46.164c0,5.176,16.441,9.37,36.721,9.37c20.282,0,36.722-4.194,36.722-9.37l2.679-46.668l8.183-14.314
				c-2.717,1.15-6.309,2.271-10.798,3.352C166.175,241.591,152.691,244.212,135.241,244.212z M183.739,93.99
				c-12.807,1.787-29.807,2.772-47.864,2.772s-35.055-0.985-47.863-2.772c-6.344-0.887-11.364-1.932-14.919-3.105
				c-0.848-0.28-2.285-0.759-3.668-1.521l7.935,73.031c0.369-1.259,0.779-2.515,1.234-3.768c0.932-2.563,2.01-5.072,3.232-7.522
				c1.224-2.447,2.556-4.763,3.996-6.943c1.439-2.181,2.972-4.188,4.596-6.022c1.625-1.833,3.292-3.411,5.003-4.731
				c1.711-1.321,3.438-2.354,5.182-3.098s3.47-1.117,5.182-1.117c1.97,0,3.875,0.539,5.717,1.617
				c1.841,1.077,3.562,2.822,5.166,5.232c0.368,0.539,0.602,1.084,0.698,1.635c0.098,0.552,0.146,1.071,0.146,1.559
				c0,1.154-0.276,2.065-0.829,2.731c-0.551,0.668-1.208,1-1.964,1c-0.695,0-1.338-0.366-1.935-1.096
				c-0.595-0.73-1.261-1.776-1.998-3.138c-0.694-1.229-1.457-2.121-2.289-2.673c-0.834-0.552-1.739-0.828-2.713-0.828
				c-1.517,0-3.136,0.629-4.856,1.886c-1.723,1.256-3.428,2.918-5.116,4.981c-1.69,2.066-3.309,4.425-4.857,7.08
				s-2.918,5.374-4.11,8.157c-1.192,2.785-2.138,5.529-2.842,8.233c-0.705,2.706-1.056,5.138-1.056,7.293
				c0,0.719,0.05,1.456,0.146,2.212c0.098,0.758,0.281,1.442,0.553,2.059c0.27,0.615,0.639,1.122,1.104,1.521
				c0.466,0.397,1.056,0.597,1.77,0.597c0.802,0,1.711-0.271,2.73-0.81c1.018-0.536,2.074-1.242,3.167-2.115
				c1.094-0.872,2.193-1.858,3.298-2.962s2.133-2.22,3.086-3.349c0.952-1.128,1.797-2.213,2.533-3.251
				c0.737-1.039,1.289-1.941,1.657-2.714l3.022-9.042c0.368-0.974,0.849-1.668,1.445-2.076c0.595-0.412,1.207-0.617,1.836-0.617
				c0.302,0,0.605,0.052,0.909,0.153c0.304,0.104,0.573,0.264,0.812,0.481c0.238,0.219,0.428,0.5,0.568,0.847
				c0.141,0.346,0.211,0.749,0.211,1.211c0,1.231-0.109,2.385-0.326,3.462c-0.216,1.078-0.492,2.129-0.829,3.156
				c-0.335,1.023-0.709,2.059-1.121,3.097c-0.41,1.039-0.812,2.124-1.201,3.253c-0.086,0.127-0.243,0.531-0.472,1.209
				c-0.227,0.683-0.502,1.535-0.828,2.562c-0.325,1.027-0.677,2.174-1.056,3.444c-0.38,1.269-0.769,2.564-1.169,3.887
				c-0.401,1.319-0.786,2.613-1.154,3.887c-0.368,1.269-0.699,2.416-0.991,3.442c-0.292,1.024-0.535,1.885-0.731,2.577
				c-0.195,0.691-0.313,1.104-0.356,1.231c-0.108,0.41-0.282,0.865-0.521,1.365c-0.237,0.499-0.519,0.976-0.844,1.423
				c-0.324,0.448-0.682,0.821-1.072,1.118c-0.39,0.293-0.79,0.441-1.202,0.441c-0.693,0-1.197-0.232-1.509-0.692
				c-0.315-0.462-0.472-1.309-0.472-2.54v-0.538c0-0.181,0.01-0.373,0.032-0.577c0.021-0.41,0.184-1.18,0.488-2.31
				c0.303-1.127,0.666-2.403,1.088-3.827c0.422-1.425,0.877-2.898,1.364-4.426c0.486-1.526,0.925-2.893,1.315-4.099
				c-1.149,1.283-2.392,2.561-3.736,3.827c-1.343,1.271-2.719,2.413-4.126,3.426c-1.408,1.014-2.827,1.841-4.255,2.482
				c-1.429,0.64-2.805,0.962-4.126,0.962c-1.516,0-2.821-0.335-3.916-1c-0.197-0.122-0.383-0.257-0.569-0.394l4.416,46.297
				c1.149,2.882,22.79,9.959,51.322,9.959c28.545,0,50.195-7.087,51.324-9.964l6.343-55.043c-0.525,0.482-1.036,0.953-1.524,1.409
				c-1.82,1.694-3.537,3.147-5.151,4.366c-1.612,1.22-3.188,2.162-4.726,2.828c-1.539,0.667-3.184,1-4.939,1
				c-1.646,0-2.918-0.356-3.816-1.076c-0.898-0.718-1.348-1.705-1.348-2.964v-0.288c0-0.089,0.011-0.198,0.033-0.328
				c0.086-0.768,0.422-1.654,1.008-2.653c0.583-1.001,1.286-2.039,2.11-3.115c0.823-1.079,1.7-2.168,2.632-3.271
				c0.931-1.103,1.791-2.147,2.583-3.138c0.789-0.985,1.444-1.89,1.964-2.711c0.521-0.82,0.781-1.486,0.781-2.001
				c0-0.309-0.109-0.551-0.325-0.731c-0.217-0.178-0.575-0.27-1.072-0.27c-0.867,0-1.761,0.225-2.68,0.675
				c-0.921,0.447-1.832,1.051-2.73,1.808c-0.898,0.756-1.775,1.624-2.631,2.598c-0.855,0.976-1.656,1.988-2.404,3.041
				c-0.747,1.052-1.429,2.109-2.046,3.175c-0.617,1.062-1.143,2.045-1.577,2.941c-0.129,0.282-0.313,0.682-0.552,1.192
				c-0.239,0.514-0.499,1.092-0.78,1.732c-0.282,0.641-0.579,1.303-0.893,1.979c-0.315,0.684-0.602,1.323-0.861,1.926
				s-0.493,1.142-0.697,1.616c-0.207,0.473-0.354,0.802-0.439,0.98c-0.109,0.23-0.288,0.666-0.537,1.307
				c-0.249,0.644-0.536,1.394-0.86,2.252c-0.325,0.859-0.666,1.764-1.023,2.715c-0.357,0.948-0.694,1.847-1.008,2.694
				c-0.313,0.843-0.59,1.587-0.827,2.229c-0.238,0.641-0.391,1.076-0.456,1.309c-0.216,0.667-0.471,1.293-0.762,1.885
				c-0.293,0.591-0.628,1.108-1.007,1.561c-0.379,0.446-0.812,0.806-1.3,1.074c-0.487,0.271-1.034,0.404-1.639,0.404
				c-0.781,0-1.424-0.188-1.934-0.559c-0.508-0.37-0.763-1.083-0.763-2.136c0-0.514,0.065-1.038,0.195-1.576
				c0.13-0.538,0.293-1.071,0.488-1.598c0.194-0.525,0.395-1.038,0.6-1.538c0.205-0.502,0.396-0.982,0.568-1.443
				c1.17-2.564,2.362-5.136,3.574-7.716c1.213-2.577,2.376-5.129,3.493-7.656c0.233-0.525,0.445-1.041,0.672-1.566
				c-0.067,0.066-0.135,0.136-0.201,0.201c-1.408,1.36-2.81,2.559-4.207,3.6c-1.398,1.037-2.784,1.864-4.157,2.481
				c-1.376,0.614-2.714,0.921-4.014,0.921c-0.888,0-1.629-0.139-2.224-0.421c-0.596-0.283-1.072-0.669-1.43-1.154
				c-0.357-0.487-0.613-1.064-0.763-1.73c-0.052-0.229-0.083-0.469-0.117-0.704c-0.381,0.296-0.764,0.584-1.15,0.856
				c-1.342,0.948-2.664,1.712-3.964,2.288c-1.298,0.578-2.469,0.865-3.507,0.865c-1.04,0-1.885-0.345-2.535-1.037
				c-0.65-0.691-0.974-1.873-0.974-3.541c0-1.18,0.173-2.553,0.518-4.116c-0.562,1.001-1.266,2.017-2.109,3.039
				c-0.846,1.027-1.81,1.963-2.891,2.811c-1.085,0.846-2.297,1.532-3.639,2.059c-1.344,0.525-2.806,0.787-4.386,0.787
				c-0.714,0-1.402-0.088-2.063-0.268c-0.662-0.181-1.24-0.488-1.738-0.924c-0.499-0.437-0.898-1.021-1.202-1.752
				c-0.303-0.729-0.454-1.647-0.454-2.75c0-0.024,0.043-0.416,0.129-1.176c0.086-0.755,0.363-1.949,0.828-3.578
				c0.466-1.627,1.186-3.737,2.16-6.33c0.976-2.589,2.352-5.731,4.126-9.425c0.454-0.976,0.98-1.676,1.575-2.098
				c0.597-0.424,1.24-0.635,1.932-0.635c0.305,0,0.618,0.045,0.942,0.134c0.327,0.089,0.629,0.23,0.911,0.424
				c0.281,0.19,0.509,0.437,0.684,0.73c0.171,0.295,0.259,0.634,0.259,1.021c0,0.255-0.034,0.5-0.099,0.729
				c-0.108,0.438-0.341,1.009-0.697,1.713c-0.358,0.707-0.775,1.515-1.253,2.425c-0.476,0.91-0.979,1.892-1.509,2.943
				c-0.532,1.053-1.024,2.142-1.479,3.271s-0.845,2.276-1.17,3.444c-0.325,1.167-0.509,2.302-0.552,3.403
				c0,0.462,0.107,0.886,0.324,1.271c0.218,0.383,0.575,0.576,1.072,0.576c1.408,0,2.75-0.464,4.029-1.386
				c1.276-0.924,2.456-2.071,3.54-3.443c1.083-1.371,2.062-2.848,2.939-4.428c0.878-1.576,1.608-3.019,2.193-4.327
				c0.412-0.871,0.774-1.809,1.088-2.808c0.314-1.002,0.656-1.925,1.023-2.771c0.37-0.847,0.791-1.554,1.268-2.115
				c0.476-0.564,1.072-0.849,1.786-0.849c0.781,0,1.397,0.297,1.853,0.886c0.455,0.591,0.681,1.296,0.681,2.116
				c0,0.461-0.145,1.098-0.437,1.904c-0.293,0.81-0.662,1.73-1.105,2.771c-0.445,1.038-0.926,2.146-1.445,3.327
				c-0.52,1.181-1.003,2.379-1.445,3.599c-0.445,1.218-0.812,2.41-1.105,3.576c-0.292,1.17-0.438,2.252-0.438,3.252
				c0,0.925,0.476,1.386,1.428,1.386c0.672,0,1.505-0.23,2.502-0.691c0.997-0.464,2.041-1.111,3.134-1.944
				c0.273-0.208,0.548-0.425,0.821-0.653c0.306-1.259,0.664-2.423,1.08-3.48c0.758-2.001,1.527-3.989,2.307-5.965
				c0.779-1.976,1.493-3.782,2.145-5.427l9.842-24.817c0.389-0.999,0.915-1.705,1.575-2.115c0.662-0.41,1.327-0.616,2-0.616
				c0.67,0,1.282,0.218,1.834,0.655c0.552,0.436,0.829,1.141,0.829,2.116c0,0.461-0.092,0.948-0.276,1.461
				c-0.185,0.514-0.417,1.063-0.699,1.653c-0.54,1.208-1.185,2.683-1.933,4.426c-0.748,1.744-1.549,3.644-2.403,5.694
				c-0.856,2.054-1.733,4.188-2.631,6.405c-0.898,2.222-1.776,4.381-2.632,6.484c-0.854,2.104-1.656,4.098-2.403,5.982
				c-0.747,1.885-1.391,3.521-1.932,4.906c-0.239,0.59-0.472,1.277-0.698,2.06c-0.229,0.782-0.341,1.48-0.341,2.097
				c0,0.385,0.064,0.691,0.194,0.924c0.13,0.231,0.378,0.347,0.748,0.347c0.454,0,1.022-0.159,1.705-0.48
				c0.683-0.319,1.418-0.744,2.208-1.271c0.792-0.523,1.615-1.127,2.469-1.809c0.856-0.68,1.707-1.384,2.55-2.113
				c0.846-0.733,1.652-1.464,2.42-2.194c0.769-0.731,1.457-1.405,2.064-2.021c0.142-0.148,0.312-0.253,0.5-0.33
				c0.366-1.093,0.699-2.164,0.993-3.208c0.174-0.463,0.413-1.117,0.716-1.965s0.65-1.681,1.039-2.502
				c0.39-0.818,0.829-1.532,1.315-2.134c0.488-0.604,1.014-0.905,1.576-0.905c0.867,0,1.496,0.199,1.885,0.597
				c0.389,0.399,0.584,0.981,0.584,1.752c0,0.153-0.021,0.397-0.065,0.73c-0.044,0.334-0.097,0.687-0.162,1.059
				c-0.065,0.371-0.136,0.726-0.211,1.06c-0.077,0.333-0.146,0.575-0.212,0.729c0.8-0.872,1.667-1.738,2.599-2.597
				c0.932-0.859,1.895-1.638,2.892-2.329c0.996-0.693,2.014-1.255,3.054-1.693c1.039-0.435,2.079-0.652,3.118-0.652
				c0.715,0,1.424,0.103,2.127,0.307c0.704,0.206,1.333,0.508,1.885,0.905c0.552,0.397,1.002,0.897,1.348,1.501
				c0.345,0.603,0.519,1.302,0.519,2.098c0,1.052-0.264,2.174-0.795,3.364c-0.53,1.193-1.196,2.393-1.997,3.598
				c-0.803,1.207-1.668,2.38-2.599,3.521c-0.932,1.143-1.803,2.181-2.614,3.117c-0.813,0.938-1.496,1.729-2.048,2.387
				c-0.551,0.653-0.84,1.095-0.86,1.327c0,0.309,0.097,0.556,0.292,0.751c0.195,0.19,0.52,0.288,0.974,0.288
				c0.368,0,0.91-0.205,1.624-0.617c0.714-0.41,1.716-1.121,3.004-2.135s2.925-2.373,4.906-4.079
				c1.359-1.171,2.95-2.562,4.743-4.148l8.591-79.568c-1.384,0.766-2.823,1.244-3.671,1.524
				C195.103,92.059,190.084,93.104,183.739,93.99z M135.824,75.111c-37.143,0-67.254,4.153-67.254,9.276
				c0,5.124,30.111,9.276,67.254,9.276c37.143,0,67.255-4.152,67.255-9.276C203.079,79.264,172.967,75.111,135.824,75.111z
				 M162.678,87.099c0,1.202-3.579,2.177-7.994,2.177c-4.413,0-7.992-0.975-7.992-2.177c0-1.203,3.579-2.178,7.992-2.178
				C159.1,84.92,162.678,85.896,162.678,87.099z"/>
			<path id="Straw" fill="#DB4749" d="M148.311,86.136c-0.039,0.063-0.061,0.127-0.061,0.193c0,0.777,2.881,1.408,6.434,1.408
				c3.554,0,6.435-0.63,6.435-1.408l8.403-34.075l33.42-35.285c0.011-0.01,0.021-0.021,0.032-0.033
				c0.708-0.8-0.727-3.275-3.11-5.399c-2.381-2.124-4.952-2.843-5.751-2.033c-0.007,0.005-0.012,0.012-0.018,0.018l-35.659,37.522
				L148.311,86.136z"/>
		</g>
	</g>
</g>
<g id="html5">
	<path fill="#010101" d="M654.931,14.722h13.293V27.9h12.255V14.722h13.293v39.88h-13.293V41.31h-12.14v13.292h-13.408
		 M711.34,28.016h-11.73V14.722h36.816v13.293h-11.792v26.586H711.34 M742.263,14.722h13.93l8.555,14.045l8.555-14.045h13.929v39.88
		h-13.294V34.835l-9.307,14.334l-9.306-14.334v19.767h-13.062 M793.818,14.722h13.293v26.702h18.842v13.178h-32.135"/>
	<path fill="#E44F26" d="M654.468,286.948l-19.073-214.08h209.689L826.013,286.83l-85.945,23.814"/>
	<path fill="#F1662A" d="M740.24,292.438V90.437h85.713l-16.355,182.642"/>
	<path fill="#EBEBEB" d="M674.351,116.619h65.891v26.239h-37.106l2.428,26.876h34.679v26.185h-58.724 M682.673,209.096h26.355
		l1.85,20.98l29.362,7.858v27.396l-53.868-15.028"/>
	<path fill="#FFFFFF" d="M805.896,116.619h-65.772v26.239h63.347 M801.1,169.735h-60.976v26.239h32.367l-3.063,34.103l-29.304,7.858
		v27.28l53.751-14.912"/>
</g>
<g id="seed">
	<path fill="#F7B238" d="M1455.371,181.118c0,106.46-108.134,131.104-108.134,131.104s-108.135-24.645-108.135-131.104
		c0-7.828,0.829-15.049,2.401-21.689c1.551-6.535,3.823-12.5,6.74-17.939c32.744-5.761,65.868-8.634,98.992-8.634
		c33.123,0,66.248,2.873,98.991,8.634c2.917,5.439,5.189,11.405,6.74,17.939C1454.542,166.07,1455.371,173.29,1455.371,181.118z"/>
	<path fill="#E19C2B" d="M1446.229,141.489c-32.743-5.761-59.028-32.137-92.152-32.137c-27.453,0-40.396,7.443-67.631,11.398
		c-0.346,0.051-8.015-9.169-8.359-9.119c-2.167,0.319-4.752,8.723-6.917,9.068c-0.596,0.094-6.165,0.715-6.761,0.812
		c-2.512,0.407-13.656,19.537-16.164,19.978c-2.917,5.44-5.189,11.406-6.74,17.941c-1.572,6.64-2.399,13.859-2.399,21.688
		c0,106.46,108.134,131.104,108.134,131.104s-69.936-26.308-69.936-139.953c0-6.571,0.337-12.736,0.975-18.521
		c22.9-2.783,45.931-4.174,68.961-4.174c33.124,0,66.248,2.873,98.992,8.633c2.249,0.395,4.49,0.805,6.74,1.224
		C1451.419,152.894,1449.146,146.929,1446.229,141.489z"/>
	<path fill="#985E25" d="M1347.455,89.712c-0.09,0-0.18-0.002-0.271-0.006c-3.143-0.146-5.57-2.811-5.429-5.952l0,0
		c0.006-0.138,0.562-13.911-3.711-28.119c-5.366-17.853-15.621-28.121-30.479-30.52c-3.107-0.501-5.221-3.428-4.72-6.534
		c0.501-3.107,3.431-5.22,6.535-4.72c19.351,3.124,33.067,16.536,39.668,38.79c4.754,16.029,4.121,30.996,4.092,31.626
		C1353.001,87.332,1350.48,89.712,1347.455,89.712z"/>
	<path fill="#B1742A" d="M1464.375,133.448c0,3.716-0.38,7.492-1.162,11.292c-5.646-1.171-11.314-2.258-16.984-3.253
		c-32.743-5.76-65.867-8.633-98.991-8.633c-33.123,0-66.248,2.873-98.992,8.633c-5.676,0.995-11.336,2.082-16.99,3.253
		c-6.627-32.008,15.807-62.715,48.308-66.226c44.985-4.864,90.358-4.864,135.345,0
		C1443.554,81.608,1464.375,105.834,1464.375,133.448z"/>
	<path fill="#985E25" d="M1327.688,78.516c14.506-1.568,29.051-2.623,43.608-3.18c-30.596-1.17-61.255-0.116-91.735,3.18
		c-32.502,3.51-54.933,34.218-48.307,66.226c5.653-1.171,11.313-2.258,16.99-3.252c10.005-1.761,20.045-3.248,30.107-4.47
		C1276.468,107.949,1297.814,81.742,1327.688,78.516z"/>
</g>
<path id="plus" fill="#D81F2A" d="M443.837,151.152h-32.634v-32.634c0-8.017-6.734-14.581-14.754-14.581
	c-8.021,0-14.754,6.564-14.754,14.581v32.634h-32.635c-8.018,0-14.58,6.733-14.58,14.755c0,8.021,6.562,14.755,14.58,14.755h32.635
	v32.633c0,8.017,6.733,14.581,14.754,14.581c8.02,0,14.754-6.564,14.754-14.581v-32.633h32.634c8.017,0,14.581-6.734,14.581-14.755
	C458.418,157.885,451.854,151.152,443.837,151.152z"/>
<g id="dash">
	<path fill="#96CB5D" d="M1087.311,124.172c-1.467-1.468-3.25-2.201-5.345-2.201h-95.584c-2.095,0-3.877,0.733-5.345,2.201
		c-1.467,1.467-2.2,3.248-2.2,5.345v15.093c0,2.099,0.733,3.879,2.2,5.344c1.468,1.47,3.25,2.201,5.345,2.201h95.583
		c2.096,0,3.879-0.731,5.346-2.201c1.468-1.465,2.2-3.246,2.2-5.344v-15.093C1089.512,127.42,1088.779,125.639,1087.311,124.172z"/>
</g>
<g id="dash_1_">
	<path fill="#96CB5D" d="M1087.311,171.03c-1.467-1.468-3.25-2.201-5.345-2.201h-95.584c-2.095,0-3.877,0.733-5.345,2.201
		c-1.467,1.467-2.2,3.248-2.2,5.345v15.093c0,2.099,0.733,3.879,2.2,5.344c1.468,1.47,3.25,2.201,5.345,2.201h95.583
		c2.096,0,3.879-0.731,5.346-2.201c1.468-1.465,2.2-3.246,2.2-5.344v-15.093C1089.512,174.278,1088.779,172.496,1087.311,171.03z"/>
</g>
</svg>
