<?xml version="1.0" encoding="utf-8"?>
<!-- Generator: Adobe Illustrator 16.0.0, SVG Export Plug-In . SVG Version: 6.00 Build 0)  -->
<!DOCTYPE svg PUBLIC "-//W3C//DTD SVG 1.1//EN" "http://www.w3.org/Graphics/SVG/1.1/DTD/svg11.dtd">
<svg version="1.1" xmlns="http://www.w3.org/2000/svg" xmlns:xlink="http://www.w3.org/1999/xlink" x="0px" y="0px" width="1000px"
	 height="1000px" viewBox="0 0 1000 1000" enable-background="new 0 0 1000 1000" xml:space="preserve">
<g id="Layer_2">
	<linearGradient id="SVGID_1_" gradientUnits="userSpaceOnUse" x1="100.3301" y1="489.8086" x2="899.2783" y2="489.8086">
		<stop  offset="0" style="stop-color:#F89A2F"/>
		<stop  offset="0.0716" style="stop-color:#F5832B"/>
		<stop  offset="0.1605" style="stop-color:#F26928"/>
		<stop  offset="0.2513" style="stop-color:#F05226"/>
		<stop  offset="0.3436" style="stop-color:#EF3E26"/>
		<stop  offset="0.4383" style="stop-color:#EE3025"/>
		<stop  offset="0.5392" style="stop-color:#EE2A25"/>
		<stop  offset="0.9994" style="stop-color:#D31F26"/>
	</linearGradient>
	<path fill="url(#SVGID_1_)" d="M859.278,90.335H140.33c-22.092,0-40,17.908-40,40v718.947c0,22.092,17.908,40,40,40h718.948
		c22.091,0,40-17.908,40-40V130.335C899.278,108.244,881.369,90.335,859.278,90.335z M881.384,833.179
		c0,21.103-17.107,38.209-38.208,38.209H156.433c-21.102,0-38.208-17.106-38.208-38.209v-686.74
		c0-21.103,17.106-38.208,38.208-38.208h686.743c21.101,0,38.208,17.106,38.208,38.208V833.179z"/>
	<g>
		<path fill="#ED1C24" d="M346.244,821.212c1.071,2.063,2.494,3.734,4.27,5.013c1.773,1.28,3.856,2.228,6.251,2.847
			c2.392,0.618,4.867,0.928,7.426,0.928c1.733,0,3.59-0.143,5.569-0.433c1.98-0.288,3.837-0.846,5.57-1.671
			c1.732-0.824,3.176-1.959,4.332-3.404c1.154-1.442,1.732-3.279,1.732-5.508c0-2.392-0.764-4.332-2.29-5.817
			c-1.527-1.484-3.527-2.723-6.003-3.713c-2.475-0.99-5.281-1.856-8.416-2.599c-3.137-0.743-6.312-1.566-9.53-2.476
			c-3.301-0.824-6.52-1.835-9.654-3.032c-3.137-1.195-5.94-2.742-8.416-4.642c-2.476-1.897-4.478-4.271-6.003-7.117
			c-1.527-2.847-2.29-6.291-2.29-10.334c0-4.537,0.969-8.479,2.909-11.82c1.938-3.342,4.475-6.127,7.611-8.354
			c3.135-2.229,6.684-3.878,10.645-4.951c3.961-1.071,7.921-1.608,11.882-1.608c4.62,0,9.055,0.516,13.306,1.547
			c4.248,1.032,8.023,2.703,11.324,5.013c3.3,2.311,5.92,5.26,7.86,8.85c1.938,3.589,2.908,7.942,2.908,13.058h-18.813
			c-0.166-2.64-0.723-4.827-1.671-6.56c-0.949-1.733-2.208-3.095-3.774-4.085c-1.568-0.99-3.363-1.69-5.384-2.104
			c-2.023-0.412-4.229-0.619-6.622-0.619c-1.568,0-3.137,0.166-4.703,0.495c-1.568,0.33-2.992,0.909-4.271,1.732
			c-1.28,0.826-2.332,1.856-3.156,3.095c-0.825,1.237-1.237,2.806-1.237,4.703c0,1.732,0.329,3.137,0.99,4.208
			c0.659,1.073,1.959,2.063,3.898,2.971c1.938,0.909,4.62,1.815,8.045,2.723c3.423,0.909,7.9,2.063,13.43,3.466
			c1.649,0.331,3.939,0.928,6.869,1.795c2.928,0.866,5.836,2.249,8.726,4.146c2.888,1.899,5.384,4.437,7.488,7.612
			c2.104,3.178,3.156,7.24,3.156,12.191c0,4.044-0.785,7.798-2.352,11.263c-1.568,3.466-3.899,6.458-6.993,8.974
			c-3.095,2.518-6.932,4.478-11.511,5.879c-4.58,1.402-9.883,2.104-15.904,2.104c-4.87,0-9.593-0.6-14.172-1.795
			c-4.58-1.195-8.623-3.073-12.13-5.632c-3.508-2.557-6.293-5.816-8.354-9.777c-2.063-3.961-3.054-8.664-2.97-14.11h18.812
			C344.635,816.632,345.171,819.15,346.244,821.212z"/>
		<path fill="#ED1C24" d="M477.811,754.623v16.338h-46.662v18.937h42.825v15.101h-42.825v21.659h47.652v16.338h-67.084v-88.372
			H477.811z"/>
		<path fill="#ED1C24" d="M558.013,754.623v16.338h-46.662v18.937h42.825v15.101h-42.825v21.659h47.652v16.338h-67.084v-88.372
			H558.013z"/>
		<path fill="#ED1C24" d="M610.243,754.623c5.693,0,10.994,0.909,15.904,2.723c4.909,1.816,9.159,4.539,12.749,8.169
			c3.589,3.632,6.394,8.169,8.416,13.615c2.021,5.445,3.032,11.841,3.032,19.185c0,6.436-0.825,12.377-2.476,17.822
			c-1.651,5.446-4.146,10.149-7.487,14.11c-3.342,3.96-7.51,7.076-12.501,9.345c-4.993,2.271-10.873,3.403-17.638,3.403h-38.121
			v-88.372H610.243z M608.882,826.657c2.805,0,5.527-0.452,8.169-1.361c2.64-0.907,4.991-2.413,7.055-4.518
			c2.062-2.104,3.713-4.847,4.951-8.23c1.237-3.383,1.856-7.508,1.856-12.377c0-4.456-0.434-8.479-1.3-12.068
			c-0.866-3.589-2.29-6.662-4.27-9.221c-1.98-2.557-4.602-4.518-7.859-5.879c-3.261-1.361-7.283-2.042-12.068-2.042h-13.862v55.696
			H608.882z"/>
	</g>
</g>
<g id="Layer_1">
	<path fill="#E44F26" d="M315.969,636.047l-40.923-459.333h449.909l-40.923,459.085l-184.403,51.094"/>
	<path fill="#F1662A" d="M500.001,647.828V214.414h183.907l-35.095,391.874"/>
	<path fill="#EBEBEB" d="M358.629,270.59h141.372v56.301h-79.615l5.209,57.665h74.405v56.177H374.006 M376.486,469.006h56.547
		l3.969,45.016l62.999,16.865v58.781l-115.578-32.242"/>
	<path fill="#FFFFFF" d="M640.877,270.59H499.753v56.301h135.915 M630.584,384.555H499.753v56.301H569.2l-6.573,73.166
		l-62.874,16.865v58.533l115.329-31.994"/>
	<g>
	</g>
	<g>
	</g>
	<g>
	</g>
	<g>
	</g>
	<g>
	</g>
	<g>
	</g>
</g>
</svg>
