<?xml version="1.0" encoding="utf-8"?>
<!-- Generator: Adobe Illustrator 16.0.0, SVG Export Plug-In . SVG Version: 6.00 Build 0)  -->
<!DOCTYPE svg PUBLIC "-//W3C//DTD SVG 1.1//EN" "http://www.w3.org/Graphics/SVG/1.1/DTD/svg11.dtd">
<svg version="1.1" id="Layer_1" xmlns="http://www.w3.org/2000/svg" xmlns:xlink="http://www.w3.org/1999/xlink" x="0px" y="0px"
	 width="680px" height="500px" viewBox="409.5 0 680 500" enable-background="new 409.5 0 680 500" xml:space="preserve">
<path fill="#CD6799" d="M990.502,287.385c-23.259,0.121-43.473,5.723-60.399,14.004c-6.211-12.299-12.421-23.26-13.517-31.296
	c-1.218-9.377-2.68-15.101-1.218-26.303c1.461-11.203,8.036-27.155,7.915-28.373c-0.122-1.218-1.461-6.941-14.856-7.063
	c-13.396-0.122-24.964,2.557-26.303,6.089c-1.34,3.531-3.897,11.568-5.602,19.849c-2.313,12.178-26.79,55.65-40.794,78.422
	c-4.506-8.889-8.402-16.683-9.255-22.893c-1.218-9.377-2.679-15.101-1.218-26.304s8.037-27.155,7.915-28.373
	s-1.461-6.941-14.856-7.062c-13.395-0.122-24.963,2.557-26.303,6.088s-2.801,11.812-5.602,19.849s-35.314,80.613-43.838,99.367
	c-4.385,9.619-8.159,17.291-10.838,22.527l0,0c0,0-0.122,0.365-0.487,0.975c-2.313,4.505-3.653,6.94-3.653,6.94s0,0,0,0.122
	c-1.826,3.288-3.775,6.332-4.749,6.332c-0.73,0-2.07-8.768,0.243-20.701c4.871-25.207,16.439-64.418,16.318-65.757
	c0-0.731,2.191-7.551-7.551-11.082c-9.498-3.531-12.907,2.314-13.76,2.314s-1.462,2.069-1.462,2.069s10.595-44.081-20.214-44.081
	c-19.24,0-45.787,21.066-58.938,40.062c-8.28,4.506-25.938,14.126-44.812,24.477c-7.185,4.019-14.612,8.037-21.554,11.812
	c-0.487-0.487-0.974-1.097-1.461-1.584c-37.263-39.819-106.187-67.949-103.264-121.407c1.096-19.484,7.793-70.628,132.367-132.732
	c102.533-50.536,184.121-36.532,198.246-5.48c20.215,44.325-43.716,126.644-149.658,138.578
	c-40.429,4.506-61.617-11.081-66.976-16.926c-5.602-6.089-6.454-6.454-8.524-5.236c-3.409,1.827-1.217,7.306,0,10.473
	c3.166,8.28,16.196,22.893,38.237,30.078c19.483,6.333,66.854,9.864,124.208-12.299c64.175-24.842,114.346-93.887,99.61-151.729
	C819.167,2.436,721.749-16.926,629.566,15.831c-54.798,19.483-114.223,50.17-156.965,90.112
	c-50.779,47.492-58.816,88.772-55.529,106.064c11.812,61.374,96.444,101.315,130.298,130.906c-1.705,0.974-3.288,1.826-4.628,2.557
	c-16.926,8.402-81.466,42.134-97.54,77.813c-18.266,40.429,2.923,69.41,16.927,73.308c43.473,12.055,88.163-9.62,112.152-45.422
	c23.989-35.801,21.067-82.318,9.985-103.629c-0.121-0.243-0.243-0.487-0.486-0.73c4.384-2.558,8.889-5.236,13.272-7.794
	c8.646-5.114,17.17-9.863,24.477-13.76c-4.14,11.325-7.185,24.842-8.646,44.325c-1.827,22.894,7.55,52.606,19.849,64.296
	c5.48,5.115,11.934,5.236,16.074,5.236c14.369,0,20.823-11.934,28.008-26.06c8.768-17.291,16.683-37.384,16.683-37.384
	s-9.863,54.311,16.927,54.311c9.742,0,19.605-12.664,23.989-19.118c0,0.122,0,0.122,0,0.122s0.243-0.366,0.73-1.218
	c0.975-1.583,1.583-2.558,1.583-2.558s0-0.122,0-0.243c3.896-6.819,12.664-22.285,25.694-47.979
	c16.805-33.123,33.001-74.525,33.001-74.525s1.461,10.106,6.453,26.912c2.923,9.863,9.012,20.701,13.883,31.174
	c-3.897,5.479-6.332,8.523-6.332,8.523s0,0,0.121,0.122c-3.166,4.141-6.575,8.646-10.351,13.029
	c-13.273,15.831-29.104,33.975-31.296,39.211c-2.557,6.211-1.948,10.717,2.923,14.369c3.531,2.68,9.863,3.045,16.317,2.68
	c11.934-0.853,20.336-3.775,24.477-5.602c6.454-2.313,14.004-5.846,21.066-11.082c13.03-9.619,20.945-23.38,20.215-41.524
	c-0.365-9.985-3.653-19.971-7.672-29.347c1.218-1.705,2.313-3.41,3.531-5.115c20.58-30.078,36.532-63.078,36.532-63.078
	s1.461,10.107,6.454,26.912c2.436,8.523,7.428,17.778,11.812,26.79c-19.362,15.709-31.296,33.975-35.558,45.908
	c-7.672,22.163-1.705,32.148,9.62,34.462c5.114,1.096,12.421-1.34,17.778-3.653c6.82-2.191,14.856-5.967,22.528-11.568
	c13.03-9.62,25.572-23.015,24.842-41.159c-0.365-8.28-2.558-16.439-5.602-24.354c16.439-6.819,37.628-10.595,64.661-7.429
	c57.965,6.819,69.411,42.986,67.219,58.208c-2.191,15.222-14.369,23.502-18.388,26.06c-4.019,2.557-5.357,3.409-4.992,5.236
	c0.487,2.679,2.436,2.557,5.845,2.069c4.75-0.852,30.443-12.299,31.539-40.307C1084.876,326.108,1050.779,287.02,990.502,287.385z
	 M543.352,438.14c-19.24,20.944-46.03,28.86-57.599,22.162c-12.421-7.185-7.55-38.114,16.073-60.277
	c14.37-13.517,32.879-26.06,45.178-33.731c2.801-1.704,6.941-4.14,11.935-7.185c0.853-0.487,1.339-0.73,1.339-0.73l0,0
	c0.975-0.608,1.949-1.218,2.923-1.826C571.846,388.212,563.565,416.099,543.352,438.14z M683.391,342.913
	c-6.698,16.317-20.702,58.086-29.226,55.771c-7.307-1.948-11.812-33.609-1.462-64.904c5.236-15.709,16.318-34.462,22.771-41.769
	c10.473-11.69,22.041-15.587,24.842-10.838C703.848,287.385,687.53,332.684,683.391,342.913z M798.953,398.197
	c-2.801,1.462-5.48,2.436-6.698,1.705c-0.853-0.487,1.218-2.436,1.218-2.436s14.491-15.587,20.215-22.649
	c3.288-4.141,7.185-9.012,11.324-14.491c0,0.487,0,1.096,0,1.583C825.012,380.541,806.99,393.083,798.953,398.197z M888.091,377.861
	c-2.07-1.461-1.705-6.332,5.236-21.554c2.679-5.967,9.011-15.952,19.849-25.572c1.218,3.896,2.07,7.672,1.948,11.203
	C915.002,365.44,898.197,374.208,888.091,377.861z"/>
</svg>
