<?xml version="1.0" standalone="no"?>
<!DOCTYPE svg PUBLIC "-//W3C//DTD SVG 20010904//EN"
 "http://www.w3.org/TR/2001/REC-SVG-20010904/DTD/svg10.dtd">
<svg version="1.0" xmlns="http://www.w3.org/2000/svg"
 width="700.000000pt" height="700.000000pt" viewBox="0 0 700.000000 700.000000"
 preserveAspectRatio="xMidYMid meet">
<metadata>
Created by potrace 1.11, written by Peter Selinger 2001-2013
</metadata>
<g transform="translate(0.000000,700.000000) scale(0.100000,-0.100000)"
fill="#000000" stroke="none">
<path d="M811 6252 c-2 -9 -5 -310 -7 -668 l-4 -651 426 -584 c234 -321 428
-586 432 -589 3 -3 -8 20 -25 50 -16 30 -163 300 -326 600 -250 459 -298 553
-302 595 l-4 50 10 -50 c7 -36 110 -235 344 -665 184 -338 335 -609 335 -602
0 6 -50 298 -110 647 l-110 636 -325 606 c-179 334 -323 608 -321 610 2 2 149
-269 327 -602 l324 -605 160 -2 160 -2 -156 -6 -155 -5 112 -648 c61 -356 114
-650 116 -653 3 -2 235 282 517 632 281 351 509 639 507 641 -2 3 -118 8 -258
13 l-253 8 254 -3 c139 -2 249 0 245 5 -10 9 -1871 1238 -1894 1250 -11 6 -17
3 -19 -8z m47 -322 c0 -14 -11 34 -23 105 -13 72 -24 141 -23 155 0 14 11 -33
23 -105 13 -71 24 -141 23 -155z m9 -67 c-3 -10 -5 -4 -5 12 0 17 2 24 5 18 2
-7 2 -21 0 -30z m101 -603 c0 -14 -22 101 -48 255 -27 154 -49 291 -48 305 0
14 22 -101 48 -255 27 -154 49 -291 48 -305z m9 -67 c-3 -10 -5 -4 -5 12 0 17
2 24 5 18 2 -7 2 -21 0 -30z m10 -60 c-3 -10 -5 -4 -5 12 0 17 2 24 5 18 2 -7
2 -21 0 -30z m10 -60 c-3 -10 -5 -4 -5 12 0 17 2 24 5 18 2 -7 2 -21 0 -30z
m1115 -60 c-51 -2 -132 -2 -180 0 -48 1 -6 3 93 3 99 0 138 -2 87 -3z"/>
<path d="M5193 5636 c-529 -347 -961 -632 -959 -633 1 -1 287 5 636 13 565 13
636 16 647 31 7 9 153 283 324 610 172 326 314 592 316 590 2 -2 -141 -278
-317 -614 l-320 -609 -50 -600 c-27 -329 -52 -621 -55 -649 -4 -45 -4 -48 8
-27 7 12 17 19 22 15 4 -4 5 -2 1 4 -6 12 113 298 121 290 2 -2 -20 -55 -48
-118 -57 -129 -73 -166 -65 -158 4 3 166 260 361 570 l356 564 -2 666 c0 366
-4 670 -7 676 -4 5 -428 -266 -969 -621z m957 404 c-7 -55 -15 -98 -18 -96 -2
3 1 50 8 106 7 55 15 98 18 96 2 -3 -1 -50 -8 -106z m-30 -220 c-7 -55 -15
-98 -18 -96 -2 3 1 50 8 106 7 55 15 98 18 96 2 -3 -1 -50 -8 -106z m-30 -220
c-7 -55 -15 -98 -18 -96 -2 3 1 50 8 106 7 55 15 98 18 96 2 -3 -1 -50 -8
-106z m-30 -220 c-7 -55 -15 -98 -18 -96 -2 3 1 50 8 106 7 55 15 98 18 96 2
-3 -1 -50 -8 -106z m-23 -157 c-3 -10 -5 -2 -5 17 0 19 2 27 5 18 2 -10 2 -26
0 -35z m-12 -89 c-6 -55 -29 -117 -132 -350 -70 -157 -128 -283 -130 -281 -1
2 53 130 121 284 102 231 125 292 131 347 4 36 10 66 12 66 3 0 2 -30 -2 -66z
m-357 -857 c-50 -114 -93 -206 -95 -204 -2 2 38 97 89 211 50 113 93 205 95
203 2 -2 -38 -97 -89 -210z"/>
<path d="M4762 5004 c-288 -7 -526 -14 -531 -16 -4 -2 257 -292 581 -646 323
-353 588 -639 588 -636 0 17 100 1215 105 1262 l6 52 -113 -1 c-62 -1 -348 -8
-636 -15z"/>
<path d="M2805 4977 c29 -19 681 -367 688 -367 6 0 677 368 686 376 2 2 -310
4 -695 4 -585 0 -695 -2 -679 -13z"/>
<path d="M2495 4497 c-143 -264 -275 -508 -293 -542 l-33 -62 332 -809 c182
-445 334 -817 338 -826 5 -14 58 14 325 172 175 105 323 190 330 190 6 0 162
-85 346 -189 324 -183 335 -189 346 -168 28 54 684 1615 684 1627 0 14 -651
1080 -660 1080 -3 0 -166 -353 -364 -785 -197 -432 -361 -785 -365 -785 -3 1
-150 317 -326 703 -175 386 -337 741 -360 788 l-40 86 -260 -480z"/>
<path d="M2778 4964 c5 -10 164 -356 352 -769 188 -412 345 -753 349 -757 6
-7 711 1523 705 1531 -1 1 -155 -81 -341 -184 -186 -103 -343 -188 -348 -188
-9 0 -454 235 -664 351 -50 28 -61 31 -53 16z"/>
<path d="M4557 3098 c-179 -424 -325 -773 -324 -774 2 -3 839 1222 845 1237 3
7 -161 274 -182 297 -10 10 -83 -154 -339 -760z"/>
<path d="M2112 3717 c-23 -78 -43 -146 -42 -150 0 -5 153 -270 341 -589 187
-319 343 -587 346 -596 4 -10 2 -13 -5 -8 -17 11 -15 -9 3 -24 13 -11 14 -10
9 5 -5 13 -4 16 5 11 9 -6 8 1 -2 26 -486 1188 -601 1468 -606 1468 -3 0 -25
-64 -49 -143z"/>
<path d="M1646 3514 c-32 -86 -54 -160 -49 -164 4 -4 163 -146 353 -316 701
-629 830 -744 835 -744 3 0 -142 188 -321 418 -179 229 -421 539 -537 689
-117 150 -215 272 -218 273 -3 0 -32 -70 -63 -156z"/>
<path d="M1736 3659 c150 -198 998 -1278 1001 -1275 3 2 -150 268 -339 590
l-343 585 -148 51 c-81 28 -155 54 -165 57 -13 5 -15 4 -6 -8z"/>
<path d="M5228 3611 l-138 -56 -407 -599 c-224 -329 -408 -605 -409 -613 -2
-8 -11 -24 -21 -36 -23 -27 0 -7 630 577 l517 480 0 153 c0 85 -3 152 -8 149
-4 -2 -250 -295 -547 -649 -297 -355 -541 -644 -543 -642 -2 2 238 292 533
645 295 353 535 643 533 644 -1 2 -65 -22 -140 -53z"/>
<path d="M2860 2221 c0 -10 581 -834 609 -864 16 -16 36 8 351 414 184 237
339 438 343 445 7 12 -92 14 -648 14 -391 0 -655 -4 -655 -9z"/>
<path d="M2491 1989 c-197 -131 -338 -231 -330 -233 8 -3 284 -91 614 -196
330 -105 620 -197 643 -205 l44 -14 -18 27 c-41 64 -579 818 -593 833 -15 15
-44 -2 -360 -212z"/>
<path d="M3897 1852 c-156 -202 -310 -400 -341 -439 -31 -40 -51 -71 -44 -68
7 2 290 92 628 200 338 107 618 196 622 198 4 1 -32 34 -80 72 -48 39 -180
146 -293 238 l-207 167 -285 -368z"/>
<path d="M2140 1742 c1 -26 70 -315 76 -322 5 -4 145 -81 311 -170 225 -121
309 -161 325 -156 13 3 155 57 317 119 l294 115 -64 20 c-35 12 -307 98 -604
192 -297 94 -566 179 -597 190 -32 10 -58 16 -58 12z"/>
<path d="M4153 1536 c-348 -111 -635 -205 -638 -208 -5 -5 562 -239 578 -238
7 0 585 327 599 339 8 7 99 303 95 307 -1 1 -287 -89 -634 -200z"/>
</g>
</svg>
